<?xml version="1.0" standalone="no"?>
<!DOCTYPE svg PUBLIC "-//W3C//DTD SVG 20010904//EN"
 "http://www.w3.org/TR/2001/REC-SVG-20010904/DTD/svg10.dtd">
<svg version="1.0" xmlns="http://www.w3.org/2000/svg"
 width="512.000000pt" height="512.000000pt" viewBox="0 0 512.000000 512.000000"
 preserveAspectRatio="xMidYMid meet">
<metadata>
Created by potrace 1.14, written by Peter Selinger 2001-2017
</metadata>
<g transform="translate(0.000000,512.000000) scale(0.100000,-0.100000)"
fill="#000000" stroke="none">
<path d="M1427 3670 l-327 -389 11 -548 c7 -302 15 -551 18 -555 3 -4 260 146
569 333 310 186 565 339 567 339 1 0 175 -402 385 -892 210 -491 383 -894 385
-896 3 -3 106 119 618 731 l367 438 -5 137 c-3 75 -10 344 -15 597 -17 812
-22 917 -36 911 -7 -3 -389 -231 -849 -506 -461 -276 -841 -498 -845 -493 -4
4 -119 269 -255 588 -137 319 -251 583 -255 587 -3 5 -153 -167 -333 -382z"/>
</g>
</svg>
