<?xml version="1.0" encoding="UTF-8"?>
<svg id="_レイヤー_1" data-name="レイヤー 1" xmlns="http://www.w3.org/2000/svg" viewBox="0 0 512 118">
  <defs>
    <style>
      .cls-1 {
        fill: #fff;
      }
    </style>
  </defs>
  <g>
    <path class="cls-1" d="M75.31,33.68c-3.06-7.56-8.08-10.36-18.12-10.36-8.91,0-13.51,4.11-14.51,9.86-1.17,6.74,4,10.52,17.38,14.63,23.07,7.07,30.7,16.28,27.33,35.68-3.57,20.55-19.49,33.87-44.92,33.87-20.41,0-33.29-5.1-41.48-18.58l22.57-14.3c4.28,7.07,10.54,10.19,20.58,10.19s15.19-4.44,16.13-9.86c1.14-6.58-2.82-9.86-18.4-15.29-21.39-7.4-29.28-17.92-26.11-36.17C19.02,14.61,33.6.64,60.81.64c17.82,0,31.17,6.08,36.94,18.58l-22.43,14.47Z"/>
    <path class="cls-1" d="M168.8,79.22c-4,23.02-17.32,38.14-42.26,38.14s-33-15.12-29.01-38.14l1.66-9.54c4.37-25.15,19.53-37.81,42.2-37.81s33.43,12.66,29.06,37.81l-1.66,9.54ZM144.7,78.07l1.26-7.23c2.11-12.17.58-18.25-8.17-18.25s-12.39,6.08-14.51,18.25l-1.26,7.23c-1.88,10.85-1.93,18.58,8.11,18.58s12.68-7.73,14.56-18.58Z"/>
    <path class="cls-1" d="M192.62,2.28h24.29l-14.11,81.21c-1.54,8.88,1.78,11.18,8.26,11.18l-3.66,21.04c-22.51,0-33.7-4.6-29.84-26.8L192.62,2.28Z"/>
    <path class="cls-1" d="M283.58,103.22c-7.41,10.03-17.84,14.14-32.58,14.14-25.59,0-33.69-16.77-30.15-37.15l2-11.51c4.43-25.48,19.35-36.83,40.41-36.83,23.48,0,31.64,13.65,27.19,39.29l-1.68,9.7h-43.73c-1.3,9.37-.15,15.78,9.73,15.78,7.61,0,9.63-2.3,13.2-6.08l15.62,12.66ZM248.05,64.43h19.27c1.08-9.04-1.83-11.84-7.5-11.84-6.32,0-9.84,4.44-11.77,11.84Z"/>
    <path class="cls-1" d="M313.27,2.28h25.91l-4,23.02h-25.91l4-23.02ZM308.65,33.52h24.29l-14.28,82.2h-24.29l14.28-82.2Z"/>
    <path class="cls-1" d="M352.15,2.28h24.29l-14.11,81.21c-1.54,8.88,1.78,11.18,8.26,11.18l-3.66,21.04c-22.51,0-33.7-4.6-29.84-26.8l15.05-86.64Z"/>
  </g>
  <g>
    <path class="cls-1" d="M466.47,36.2c-4.07-2.39-8.53-3.52-12.92-3.52-8.97,0-17.7,4.72-22.5,13.16-2.17,3.81-3.34,8-3.47,12.28-.08,2.56.21,5.15.88,7.7,1.79,6.79,6.08,12.47,12.08,15.98,6,3.52,12.99,4.45,19.68,2.63,6.69-1.82,12.28-6.18,15.75-12.26,2.17-3.81,3.34-8,3.47-12.28.08-2.56-.21-5.15-.88-7.7-1.79-6.79-6.08-12.47-12.08-15.98ZM469.33,51.28l-18.75,19.03c-.49.5-1.13.74-1.77.74s-1.28-.25-1.77-.74l-9.37-9.51c-.98-.99-.98-2.6,0-3.59.98-.99,2.56-.99,3.54,0l7.61,7.72,16.98-17.23c.98-.99,2.56-.99,3.54,0,.98.99.98,2.6,0,3.59Z"/>
    <path class="cls-1" d="M450.21,28.44c.41-.05.83-.09,1.24-.12,1.36-.1,2.73-.1,4.1,0,.42.03.84.07,1.26.11,3.67-2.01,6.3-7.27,6.3-13.45,0-7.92-9.6-14.34-9.6-14.34,0,0-9.6,6.42-9.6,14.34,0,6.19,2.63,11.45,6.31,13.46Z"/>
    <path class="cls-1" d="M435.58,34.2c.34-.25.68-.5,1.03-.74,1.14-.78,2.33-1.47,3.55-2.08.37-.19.75-.36,1.13-.53,2.2-3.61,1.89-9.5-1.16-14.86-3.9-6.86-15.38-7.55-15.38-7.55,0,0-5.16,10.44-1.25,17.29,3.05,5.35,7.91,8.57,12.08,8.45Z"/>
    <path class="cls-1" d="M411.14,45.43c5.27,3.09,11.06,3.41,14.62,1.19.17-.39.35-.78.54-1.17.3-.62.62-1.24.96-1.84.34-.61.71-1.19,1.09-1.76.24-.36.48-.71.73-1.06.11-4.23-3.06-9.16-8.33-12.25-6.76-3.96-17.04,1.27-17.04,1.27,0,0,.68,11.65,7.43,15.61Z"/>
    <path class="cls-1" d="M423.37,62.38c-.05-.43-.09-.86-.12-1.3-.1-1.39-.09-2.78,0-4.16.03-.43.07-.87.11-1.3-1.99-3.72-7.16-6.37-13.24-6.37-7.8,0-14.13,9.75-14.13,9.75,0,0,6.33,9.75,14.13,9.75,6.08,0,11.25-2.66,13.24-6.37Z"/>
    <path class="cls-1" d="M429.07,77.22c-.25-.35-.5-.71-.74-1.07-.76-1.15-1.45-2.35-2.05-3.6-.19-.39-.37-.78-.54-1.18-3.56-2.21-9.34-1.89-14.61,1.2-6.76,3.96-7.43,15.61-7.43,15.61,0,0,10.28,5.23,17.04,1.27,5.26-3.08,8.43-8,8.33-12.23Z"/>
    <path class="cls-1" d="M440.16,86.62c-.61-.31-1.21-.63-1.81-.98-.6-.35-1.17-.72-1.74-1.11-.35-.24-.7-.48-1.04-.74-4.17-.11-9.03,3.1-12.07,8.45-3.9,6.86,1.25,17.29,1.25,17.29,0,0,11.48-.69,15.38-7.54,3.05-5.36,3.36-11.24,1.17-14.85-.38-.17-.77-.34-1.15-.53Z"/>
    <path class="cls-1" d="M456.81,89.57c-.42.05-.84.1-1.26.13-.7.05-1.4.08-2.1.08s-1.33-.02-2-.07c-.43-.03-.85-.08-1.28-.13-3.66,2.02-6.28,7.27-6.28,13.44,0,7.92,9.6,14.34,9.6,14.34,0,0,9.6-6.42,9.6-14.34,0-6.18-2.62-11.44-6.3-13.45Z"/>
    <path class="cls-1" d="M471.45,83.8c-.35.26-.7.51-1.05.75-1.13.77-2.32,1.47-3.55,2.08-.38.19-.77.37-1.16.55-2.18,3.61-1.86,9.48,1.18,14.83,3.9,6.86,15.38,7.55,15.38,7.55,0,0,5.16-10.44,1.25-17.29-3.04-5.34-7.89-8.56-12.05-8.45Z"/>
    <path class="cls-1" d="M495.86,72.57c-5.27-3.09-11.06-3.41-14.62-1.19-.17.39-.35.78-.54,1.17-.3.62-.62,1.24-.96,1.84-.34.6-.71,1.19-1.09,1.76-.24.36-.48.71-.73,1.06-.11,4.23,3.06,9.16,8.33,12.25,6.76,3.96,17.04-1.27,17.04-1.27,0,0-.68-11.65-7.43-15.61Z"/>
    <path class="cls-1" d="M496.87,49.25c-6.08,0-11.25,2.66-13.24,6.37.05.43.09.86.12,1.3.1,1.39.09,2.78,0,4.16-.03.43-.07.87-.11,1.3,1.99,3.72,7.16,6.37,13.24,6.37,7.8,0,14.13-9.75,14.13-9.75,0,0-6.33-9.75-14.13-9.75Z"/>
    <path class="cls-1" d="M477.93,40.78c.25.35.5.71.74,1.07.76,1.15,1.45,2.35,2.05,3.6.19.39.37.78.54,1.18,3.56,2.21,9.34,1.89,14.61-1.2,6.76-3.96,7.43-15.61,7.43-15.61,0,0-10.28-5.23-17.04-1.27-5.26,3.08-8.43,8-8.33,12.23Z"/>
    <path class="cls-1" d="M466.84,31.39c.61.3,1.22.62,1.81.97.6.35,1.17.72,1.74,1.11.35.24.7.48,1.04.74,4.17.11,9.03-3.1,12.07-8.45,3.9-6.86-1.25-17.29-1.25-17.29,0,0-11.48.69-15.38,7.55-3.04,5.35-3.36,11.23-1.18,14.84.39.17.77.36,1.15.55Z"/>
  </g>
</svg>